# xmcd
#
# Track frame offsets: 
#        150
#        14847
#        33720
#        51162
#        62067
#        93305
#        118950
#        147350
#        151142
#        176825
#        214725
#        233290
#        251622
#        271317
#
# Disc length: 3879 seconds
#
# Revision: 6
# Processed by: cddbd v1.5.2PL0 Copyright (c) Steve Scherf et al.
# Submitted via: ExactAudioCopy v0.99pb5
#
DISCID=c90f250e
DTITLE=Maddkatt Courtship - I Know Electrikboy
DYEAR=1999
DGENRE=House
TTITLE0=My life muzik
TTITLE1=Where Is Your Past
TTITLE2=Electrikboy
TTITLE3=Zone 2 Nite
TTITLE4=My Fellow Boppers
TTITLE5=Jetsetta
TTITLE6=Cosmic Pop
TTITLE7=Excerpt: Welcome 2...
TTITLE8=Strobe
TTITLE9=The Kitty Lounge
TTITLE10=Open Air
TTITLE11=Soulmate #1
TTITLE12=Strange Wonder
TTITLE13=Cinematik
EXTD=aka: Felix da house cat YEAR: 1999
EXTT0=
EXTT1=
EXTT2=
EXTT3=
EXTT4=
EXTT5=
EXTT6=
EXTT7=
EXTT8=
EXTT9=
EXTT10=
EXTT11=
EXTT12=
EXTT13=
PLAYORDER=
